<svg xmlns="http://www.w3.org/2000/svg" xmlns:xlink="http://www.w3.org/1999/xlink" enable-background="new 0 0 1024 1024" viewBox="0 0 1024 1024"><radialGradient id="a" cx="534.994" cy="-103.143" r="954.203" gradientUnits="userSpaceOnUse"><stop offset="0" stop-color="#3ebaec"/><stop offset="1" stop-color="#359fc9"/></radialGradient><radialGradient id="b" cx="508.122" cy="108.689" r="794.709" gradientUnits="userSpaceOnUse"><stop offset="0" stop-color="#135893"/><stop offset=".237" stop-color="#125690"/><stop offset=".429" stop-color="#104f86"/><stop offset=".607" stop-color="#0d4575"/><stop offset=".774" stop-color="#09355d"/><stop offset=".934" stop-color="#03223e"/><stop offset="1" stop-color="#00182f"/></radialGradient><linearGradient id="c" x1="577.5" x2="577.5" y1="405.522" y2="734.866" gradientUnits="userSpaceOnUse"><stop offset="0" stop-color="#106fa0"/><stop offset="1" stop-color="#0f5d84"/></linearGradient><circle cx="512" cy="512" r="447" fill="url(#a)"/><circle cx="512" cy="512" r="409" fill="url(#b)"/><circle cx="577.5" cy="569.5" r="166.5" fill="url(#c)"/><g fill="#26c5fb"><path d="m578.8 740v-4c3.3 0 6.6-.1 9.8-.4l.3 4c-3.3.2-6.7.4-10.1.4zm-5 0c-3.3-.1-6.7-.2-10-.5l.3-4c3.2.3 6.5.4 9.8.5zm20.1-.8-.4-4c3.2-.3 6.5-.7 9.7-1.2l.6 4c-3.2.5-6.6.9-9.9 1.2zm-35.1-.2c-3.3-.4-6.7-.8-10-1.4l.7-3.9c3.2.5 6.5 1 9.7 1.4zm50-1.9-.7-3.9c3.2-.6 6.4-1.3 9.6-2.1l1 3.9c-3.3.8-6.6 1.5-9.9 2.1zm-64.9-.4c-3.3-.7-6.6-1.4-9.8-2.3l1-3.9c3.2.8 6.4 1.6 9.6 2.2zm79.6-3-1.1-3.9c3.1-.9 6.3-1.9 9.4-2.9l1.3 3.8c-3.1 1.1-6.4 2.1-9.6 3zm-94.3-.6c-3.2-.9-6.4-2-9.6-3.1l1.4-3.8c3.1 1.1 6.2 2.1 9.3 3.1zm108.7-4.1-1.4-3.7c3-1.2 6.1-2.4 9.1-3.7l1.6 3.7c-3.1 1.2-6.2 2.5-9.3 3.7zm-122.9-.8c-3.1-1.2-6.2-2.6-9.3-4l1.7-3.6c3 1.4 6 2.7 9 3.9zm136.7-5.1-1.7-3.6c2.9-1.4 5.9-2.9 8.7-4.5l2 3.5c-3 1.5-6 3.1-9 4.6zm-150.5-1.1c-3-1.5-6-3.1-8.9-4.8l2-3.5c2.8 1.6 5.7 3.2 8.7 4.7zm163.7-6.1-2.1-3.4c2.8-1.7 5.6-3.5 8.3-5.3l2.3 3.3c-2.7 1.9-5.6 3.7-8.5 5.4zm-176.9-1.3c-2.8-1.8-5.7-3.6-8.4-5.5l2.3-3.3c2.7 1.9 5.4 3.7 8.2 5.4zm189.5-7-2.3-3.2c2.6-1.9 5.2-3.9 7.8-6l2.5 3.1c-2.6 2.1-5.3 4.2-8 6.1zm-202-1.5c-2.7-2-5.3-4.1-7.9-6.3l2.6-3.1c2.5 2.1 5.1 4.2 7.7 6.1zm213.8-7.9-2.6-3c2.5-2.1 4.9-4.4 7.2-6.7l2.8 2.9c-2.4 2.3-4.9 4.6-7.4 6.8zm-225.5-1.6c-2.5-2.2-4.9-4.6-7.3-6.9l2.8-2.8c2.3 2.3 4.7 4.6 7.1 6.8zm236.4-8.8-2.9-2.8c2.3-2.3 4.5-4.8 6.6-7.3l3 2.6c-2.1 2.6-4.3 5.1-6.7 7.5zm-247.2-1.8c-2.3-2.4-4.5-5-6.7-7.5l3.1-2.6c2.1 2.5 4.3 5 6.5 7.4zm257.2-9.5-3.1-2.5c2.1-2.5 4.1-5.2 5.9-7.8l3.3 2.3c-1.9 2.7-4 5.4-6.1 8zm-267-1.9c-2.1-2.6-4.1-5.3-6-8.1l3.3-2.3c1.9 2.7 3.8 5.3 5.8 7.9zm276-10.2-3.3-2.2c1.8-2.7 3.6-5.5 5.2-8.3l3.4 2c-1.7 2.8-3.5 5.7-5.3 8.5zm-284.7-2.1c-1.8-2.8-3.6-5.7-5.2-8.6l3.5-2c1.6 2.8 3.3 5.6 5.1 8.4zm292.5-10.8-3.5-1.9c1.6-2.9 3.1-5.8 4.5-8.8l3.6 1.7c-1.4 3-3 6.1-4.6 9zm-300.2-2.1c-1.6-2.9-3.1-6-4.4-9l3.6-1.7c1.4 3 2.8 5.9 4.3 8.8zm306.9-11.5-3.7-1.6c1.3-3 2.6-6.1 3.7-9.1l3.8 1.4c-1.2 3.1-2.5 6.3-3.8 9.3zm-313.3-2.1c-1.3-3.1-2.5-6.2-3.6-9.4l3.8-1.3c1.1 3.1 2.3 6.1 3.5 9.1zm318.8-11.9-3.8-1.3c1-3.1 2-6.3 2.8-9.4l3.9 1c-.9 3.2-1.9 6.5-2.9 9.7zm-324.1-2.2c-1-3.2-2-6.4-2.8-9.7l3.9-1c.8 3.2 1.7 6.3 2.7 9.4zm328.2-12.3-3.9-.9c.8-3.2 1.4-6.4 2-9.6l3.9.7c-.5 3.2-1.2 6.5-2 9.8zm-332.1-2.3c-.7-3.3-1.4-6.6-1.9-9.9l3.9-.6c.5 3.2 1.2 6.5 1.9 9.6zm335-12.6-4-.6c.5-3.2.9-6.5 1.1-9.8l4 .3c-.2 3.5-.6 6.8-1.1 10.1zm-337.7-2.2c-.4-3.3-.8-6.7-1-10l4-.3c.2 3.2.6 6.5 1 9.8zm339.2-12.8-4-.2c.2-3.2.3-6.6.3-9.8v-.4h4v.4c0 3.3-.1 6.7-.3 10zm-340.5-2.3c-.1-2.6-.2-5.2-.2-7.7 0-.8 0-1.5 0-2.3l4 .1v2.3c0 2.5.1 5.1.2 7.6zm336.7-13c-.1-3.3-.3-6.6-.6-9.8l4-.4c.3 3.3.5 6.7.6 10zm-332.7-1.9-4-.2c.1-3.3.4-6.7.7-10l4 .4c-.4 3.3-.6 6.6-.7 9.8zm331.6-12.7c-.4-3.2-.9-6.5-1.5-9.7l3.9-.7c.6 3.3 1.1 6.6 1.5 9.9zm-330.4-1.9-4-.5c.4-3.3 1-6.7 1.6-9.9l3.9.8c-.5 3.1-1.1 6.3-1.5 9.6zm328-12.7c-.7-3.2-1.4-6.4-2.3-9.5l3.9-1.1c.9 3.2 1.7 6.5 2.4 9.8zm-325.4-1.8-3.9-.9c.7-3.3 1.6-6.5 2.5-9.7l3.8 1.1c-.9 3.1-1.7 6.3-2.4 9.5zm321.8-12.4c-1-3.1-2-6.3-3.1-9.3l3.8-1.4c1.2 3.1 2.2 6.3 3.2 9.5zm-318-1.9-3.8-1.2c1-3.2 2.1-6.4 3.3-9.5l3.7 1.4c-1.1 3.1-2.2 6.2-3.2 9.3zm313-12c-1.2-3-2.6-6-4-9l3.6-1.7c1.4 3 2.8 6.1 4.1 9.2zm-307.9-1.8-3.7-1.5c1.3-3.1 2.7-6.2 4.2-9.2l3.6 1.8c-1.5 2.9-2.8 5.9-4.1 8.9zm301.8-11.6c-1.5-2.9-3.1-5.8-4.7-8.6l3.4-2c1.7 2.9 3.3 5.8 4.9 8.8zm-295.5-1.7-3.5-1.9c1.6-3 3.2-5.9 5-8.8l3.4 2.1c-1.7 2.8-3.4 5.7-4.9 8.6zm288.2-11c-1.7-2.8-3.6-5.5-5.5-8.1l3.3-2.3c1.9 2.7 3.8 5.5 5.6 8.3zm-280.7-1.8-3.4-2.2c1.8-2.8 3.7-5.6 5.7-8.3l3.2 2.4c-1.9 2.7-3.7 5.4-5.5 8.1zm272.3-10.3c-2-2.6-4.1-5.2-6.2-7.6l3-2.6c2.2 2.5 4.3 5.2 6.3 7.8zm-263.8-1.7-3.2-2.5c2.1-2.6 4.2-5.2 6.4-7.7l3 2.6c-2 2.5-4.2 5.1-6.2 7.6zm254.4-9.6c-2.2-2.4-4.5-4.8-6.8-7.1l2.8-2.9c2.4 2.3 4.7 4.8 7 7.2zm-244.8-1.5-2.9-2.7c2.3-2.4 4.7-4.8 7.1-7.1l2.8 2.9c-2.4 2.1-4.8 4.5-7 6.9zm234.4-9c-2.4-2.2-4.9-4.4-7.4-6.4l2.5-3.1c2.6 2.1 5.1 4.3 7.6 6.6zm-223.9-1.4-2.7-3c2.5-2.2 5.1-4.4 7.7-6.5l2.5 3.1c-2.5 2.1-5 4.3-7.5 6.4zm212.6-8.1c-2.6-2-5.3-3.9-8-5.8l2.2-3.3c2.8 1.9 5.5 3.9 8.2 5.9zm-201.2-1.2-2.4-3.2c2.7-2 5.4-3.9 8.2-5.8l2.2 3.3c-2.7 1.8-5.4 3.8-8 5.7zm189.2-7.2c-2.8-1.8-5.6-3.4-8.4-5l1.9-3.5c2.9 1.6 5.8 3.4 8.6 5.2zm-177-1.1-2.1-3.4c2.8-1.8 5.8-3.5 8.7-5l1.9 3.5c-2.9 1.5-5.8 3.2-8.5 4.9zm164.2-6.3c-2.9-1.5-5.9-2.9-8.9-4.3l1.6-3.7c3 1.4 6.1 2.8 9.1 4.4zm-151.4-.9-1.8-3.6c3-1.5 6-2.9 9.1-4.3l1.6 3.7c-3 1.4-6 2.7-8.9 4.2zm138-5.3c-3-1.2-6.1-2.4-9.2-3.5l1.3-3.8c3.2 1.1 6.3 2.3 9.4 3.5zm-124.6-.7-1.5-3.7c3.1-1.2 6.3-2.4 9.5-3.4l1.3 3.8c-3.2 1-6.3 2.1-9.3 3.3zm110.7-4.3c-3.1-1-6.3-1.8-9.5-2.6l1-3.9c3.2.8 6.5 1.7 9.7 2.7zm-96.8-.5-1.1-3.8c3.2-1 6.5-1.8 9.7-2.6l.9 3.9c-3.2.7-6.4 1.5-9.5 2.5zm82.6-3.2c-3.2-.7-6.4-1.3-9.7-1.8l.6-4c3.3.5 6.6 1.1 9.9 1.8zm-68.3-.4-.8-3.9c3.3-.7 6.6-1.2 9.9-1.7l.6 4c-3.3.4-6.5 1-9.7 1.6zm53.7-2c-3.2-.4-6.5-.7-9.8-.9l.3-4c3.3.2 6.7.5 10 .9zm-39.2-.3-.4-4c3.3-.4 6.7-.6 10-.8l.2 4c-3.2.2-6.5.5-9.8.8zm24.6-.9c-3.2-.1-6.6-.1-9.8-.1l-.1-4c3.3-.1 6.7-.1 10.1.1z"/><path d="m465.3 641.3c-5 .2-10 .2-15 0l.4-10c4.7.2 9.5.2 14.2 0 12.7-.6 25.4-2.5 37.6-5.9l2.6 9.6c-12.9 3.6-26.3 5.7-39.8 6.3zm-40-2.7c-18.2-3.3-35.7-9.4-52.1-18.1l4.7-8.8c15.5 8.2 32 14 49.2 17.1zm103.5-11.8-4-9.2c16-6.9 30.8-16.3 44-27.8l6.6 7.5c-13.9 12.2-29.6 22.1-46.6 29.5zm-176.9-19.6c-15-10.9-28.1-24-39.1-38.9l8.1-5.9c10.4 14.1 22.8 26.4 36.9 36.7zm241.3-27.7-7.6-6.5c11.5-13.2 20.8-28.1 27.7-44.1l9.2 3.9c-7.3 16.9-17.1 32.7-29.3 46.7zm-293.8-32.5c-8.8-16.3-14.9-33.8-18.3-52l9.8-1.8c3.2 17.2 9 33.7 17.3 49.1zm331.4-38-9.7-2.6c4.5-16.8 6.5-34.2 5.7-51.8v-.4l10-.4v.4c.8 18.6-1.2 37-6 54.8zm-342.6-39.4-10 .4v-.2c-.8-18.5 1.2-36.9 6-54.6l9.7 2.6c-4.5 16.7-6.4 34.1-5.7 51.6zm335.9-39c-3.2-17.2-9.1-33.7-17.4-49.1l8.8-4.8c8.8 16.3 15 33.8 18.4 52zm-322.5-35.2-9.2-3.9c7.3-17 17.1-32.7 29.2-46.8l7.6 6.5c-11.4 13.3-20.7 28.1-27.6 44.2zm292.4-33.9c-10.4-14.1-22.8-26.4-37-36.7l5.9-8.1c15 10.9 28.2 24 39.1 38.9zm-248-27.1-6.6-7.5c14-12.2 29.6-22.2 46.6-29.5l4 9.2c-16 6.8-30.8 16.2-44 27.8zm190.9-22.2c-15.5-8.2-32-14-49.2-17l1.8-9.8c18.2 3.3 35.7 9.4 52.1 18.1zm-124.5-13.6-2.7-9.6c13-3.6 26.4-5.7 40-6.3 4.9-.2 9.9-.2 14.8 0l-.4 10c-4.6-.2-9.3-.2-14 0-12.8.5-25.5 2.5-37.7 5.9z"/></g></svg>