<svg xmlns="http://www.w3.org/2000/svg" xmlns:svg="http://www.w3.org/2000/svg" xmlns:xlink="http://www.w3.org/1999/xlink" id="svg2869" width="421.156" height="232.063" version="1.0"><defs id="defs2871"><linearGradient id="linearGradient2908"><stop style="stop-color:#fff;stop-opacity:1" id="stop2910" offset="0"/><stop style="stop-color:#fff;stop-opacity:0" id="stop2912" offset="1"/></linearGradient><linearGradient id="linearGradient2900"><stop style="stop-color:#4d4d4d;stop-opacity:1" id="stop2902" offset="0"/><stop style="stop-color:#4d4d4d;stop-opacity:0" id="stop2904" offset="1"/></linearGradient><linearGradient id="linearGradient2884"><stop style="stop-color:#000;stop-opacity:1" id="stop2886" offset="0"/><stop style="stop-color:#000;stop-opacity:0" id="stop2888" offset="1"/></linearGradient><linearGradient id="linearGradient2890" x1="393.528" x2="441.831" y1="516.766" y2="218.424" gradientTransform="translate(-175.13614,-339.18807)" gradientUnits="userSpaceOnUse" xlink:href="#linearGradient2884"/><linearGradient id="linearGradient2906" x1="340.963" x2="424.147" y1="621.593" y2="382.919" gradientUnits="userSpaceOnUse" xlink:href="#linearGradient2900"/><linearGradient id="linearGradient2914" x1="359.432" x2="322.494" y1="472.725" y2="671.62" gradientUnits="userSpaceOnUse" xlink:href="#linearGradient2908"/></defs><metadata id="metadata2874"/><g id="layer1" transform="translate(-175.13614,-339.18807)"><path style="fill:url(#linearGradient2890);fill-opacity:1;fill-rule:evenodd;stroke:none;stroke-width:30;stroke-linecap:butt;stroke-linejoin:miter;marker:none;stroke-miterlimit:4;stroke-dasharray:none;stroke-dashoffset:0;stroke-opacity:1;visibility:visible;display:inline;overflow:visible;enable-background:accumulate" id="path3289" d="M 133.6875 0 L 131.5 12.40625 L 130.21875 19.71875 L 124.9375 19.71875 L 50.03125 19.71875 L 37.4375 19.71875 L 35.25 32.125 L 11.6875 165.78125 L 10.71875 171.375 L 10.6875 171.375 L 8.5 183.78125 L 3.09375 214.46875 L 0 232.0625 L 17.875 232.0625 L 92.78125 232.0625 L 105.375 232.0625 L 107.5625 219.65625 L 108.84375 212.34375 L 114.125 212.34375 L 141.78125 212.34375 L 154.375 212.34375 L 159.65625 212.34375 L 187.3125 212.34375 L 189.03125 212.34375 L 199.90625 212.34375 L 206.90625 212.34375 L 234.5625 212.34375 L 236.28125 212.34375 L 247.15625 212.34375 L 254.15625 212.34375 L 281.8125 212.34375 L 281.4375 214.46875 L 278.34375 232.0625 L 296.21875 232.0625 L 323.875 232.0625 L 336.46875 232.0625 L 338.65625 219.65625 L 339.9375 212.34375 L 374.59375 212.34375 L 387.1875 212.34375 L 389.375 199.9375 L 418.0625 37.3125 L 421.15625 19.71875 L 403.28125 19.71875 L 328.375 19.71875 L 315.78125 19.71875 L 310.5 19.71875 L 188.34375 19.71875 L 188.71875 17.59375 L 191.8125 0 L 173.9375 0 L 146.28125 0 L 133.6875 0 z M 146.28125 15 L 173.9375 15 L 168.53125 45.65625 L 140.875 45.65625 L 146.28125 15 z M 50.03125 34.71875 L 124.9375 34.71875 L 92.78125 217.0625 L 17.875 217.0625 L 23.28125 186.375 L 70.53125 186.375 L 73.71875 168.375 L 26.46875 168.375 L 50.03125 34.71875 z M 188.34375 34.71875 L 310.5 34.71875 L 281.84375 197.34375 L 254.1875 197.34375 L 277.4375 65.375 L 257.84375 65.375 L 234.59375 197.34375 L 206.9375 197.34375 L 230.1875 65.375 L 210.59375 65.375 L 187.34375 197.34375 L 159.6875 197.34375 L 188.34375 34.71875 z M 328.375 34.71875 L 403.28125 34.71875 L 374.625 197.34375 L 327.375 197.34375 L 323.875 217.0625 L 296.21875 217.0625 L 328.375 34.71875 z M 138.75 57.75 L 166.40625 57.75 L 141.8125 197.34375 L 114.15625 197.34375 L 138.75 57.75 z M 72.28125 65.375 L 59.53125 137.6875 L 79.125 137.6875 L 91.875 65.375 L 72.28125 65.375 z M 350.625 65.375 L 332.78125 166.65625 L 352.375 166.65625 L 370.21875 65.375 L 350.625 65.375 z" transform="translate(175.13614,339.18807)"/></g></svg>