<?xml version="1.0" encoding="UTF-8" standalone="no"?>
<!-- Created with Inkscape (http://www.inkscape.org/) -->

<svg
   xmlns:dc="http://purl.org/dc/elements/1.1/"
   xmlns:cc="http://creativecommons.org/ns#"
   xmlns:rdf="http://www.w3.org/1999/02/22-rdf-syntax-ns#"
   xmlns:svg="http://www.w3.org/2000/svg"
   xmlns="http://www.w3.org/2000/svg"
   xmlns:xlink="http://www.w3.org/1999/xlink"
   xmlns:sodipodi="http://sodipodi.sourceforge.net/DTD/sodipodi-0.dtd"
   xmlns:inkscape="http://www.inkscape.org/namespaces/inkscape"
   width="421.15625"
   height="232.06252"
   id="svg2869"
   sodipodi:version="0.32"
   inkscape:version="0.48.0 r9654"
   version="1.0"
   sodipodi:docname="gimp.svg"
   inkscape:output_extension="org.inkscape.output.svg.inkscape">
  <defs
     id="defs2871">
    <linearGradient
       inkscape:collect="always"
       id="linearGradient2908">
      <stop
         style="stop-color:#ffffff;stop-opacity:1;"
         offset="0"
         id="stop2910" />
      <stop
         style="stop-color:#ffffff;stop-opacity:0;"
         offset="1"
         id="stop2912" />
    </linearGradient>
    <linearGradient
       inkscape:collect="always"
       id="linearGradient2900">
      <stop
         style="stop-color:#4d4d4d;stop-opacity:1;"
         offset="0"
         id="stop2902" />
      <stop
         style="stop-color:#4d4d4d;stop-opacity:0;"
         offset="1"
         id="stop2904" />
    </linearGradient>
    <linearGradient
       inkscape:collect="always"
       id="linearGradient2884">
      <stop
         style="stop-color:#000000;stop-opacity:1;"
         offset="0"
         id="stop2886" />
      <stop
         style="stop-color:#000000;stop-opacity:0;"
         offset="1"
         id="stop2888" />
    </linearGradient>
    <inkscape:perspective
       sodipodi:type="inkscape:persp3d"
       inkscape:vp_x="0 : 526.18109 : 1"
       inkscape:vp_y="0 : 1000 : 0"
       inkscape:vp_z="744.09448 : 526.18109 : 1"
       inkscape:persp3d-origin="372.04724 : 350.78739 : 1"
       id="perspective2877" />
    <linearGradient
       inkscape:collect="always"
       xlink:href="#linearGradient2884"
       id="linearGradient2890"
       x1="393.52802"
       y1="516.7663"
       x2="441.83109"
       y2="218.42375"
       gradientUnits="userSpaceOnUse"
       gradientTransform="translate(-175.13614,-339.18807)" />
    <linearGradient
       inkscape:collect="always"
       xlink:href="#linearGradient2900"
       id="linearGradient2906"
       x1="340.96289"
       y1="621.59332"
       x2="424.14676"
       y2="382.91934"
       gradientUnits="userSpaceOnUse" />
    <linearGradient
       inkscape:collect="always"
       xlink:href="#linearGradient2908"
       id="linearGradient2914"
       x1="359.43173"
       y1="472.72525"
       x2="322.49408"
       y2="671.6203"
       gradientUnits="userSpaceOnUse" />
  </defs>
  <sodipodi:namedview
     id="base"
     pagecolor="#ffffff"
     bordercolor="#666666"
     borderopacity="1.0"
     gridtolerance="10000"
     guidetolerance="10"
     objecttolerance="10"
     inkscape:pageopacity="0.0"
     inkscape:pageshadow="2"
     inkscape:zoom="1.4077778"
     inkscape:cx="249.0539"
     inkscape:cy="93.404707"
     inkscape:document-units="px"
     inkscape:current-layer="layer1"
     showgrid="false"
     inkscape:window-width="1600"
     inkscape:window-height="856"
     inkscape:window-x="0"
     inkscape:window-y="0"
     inkscape:window-maximized="1" />
  <metadata
     id="metadata2874">
    <rdf:RDF>
      <cc:Work
         rdf:about="">
        <dc:format>image/svg+xml</dc:format>
        <dc:type
           rdf:resource="http://purl.org/dc/dcmitype/StillImage" />
      </cc:Work>
    </rdf:RDF>
  </metadata>
  <g
     inkscape:label="Layer 1"
     inkscape:groupmode="layer"
     id="layer1"
     transform="translate(-175.13614,-339.18807)">
    <path
       style="fill:url(#linearGradient2890);fill-opacity:1;fill-rule:evenodd;stroke:none;stroke-width:30;stroke-linecap:butt;stroke-linejoin:miter;marker:none;stroke-miterlimit:4;stroke-dasharray:none;stroke-dashoffset:0;stroke-opacity:1;visibility:visible;display:inline;overflow:visible;enable-background:accumulate"
       d="M 133.6875 0 L 131.5 12.40625 L 130.21875 19.71875 L 124.9375 19.71875 L 50.03125 19.71875 L 37.4375 19.71875 L 35.25 32.125 L 11.6875 165.78125 L 10.71875 171.375 L 10.6875 171.375 L 8.5 183.78125 L 3.09375 214.46875 L 0 232.0625 L 17.875 232.0625 L 92.78125 232.0625 L 105.375 232.0625 L 107.5625 219.65625 L 108.84375 212.34375 L 114.125 212.34375 L 141.78125 212.34375 L 154.375 212.34375 L 159.65625 212.34375 L 187.3125 212.34375 L 189.03125 212.34375 L 199.90625 212.34375 L 206.90625 212.34375 L 234.5625 212.34375 L 236.28125 212.34375 L 247.15625 212.34375 L 254.15625 212.34375 L 281.8125 212.34375 L 281.4375 214.46875 L 278.34375 232.0625 L 296.21875 232.0625 L 323.875 232.0625 L 336.46875 232.0625 L 338.65625 219.65625 L 339.9375 212.34375 L 374.59375 212.34375 L 387.1875 212.34375 L 389.375 199.9375 L 418.0625 37.3125 L 421.15625 19.71875 L 403.28125 19.71875 L 328.375 19.71875 L 315.78125 19.71875 L 310.5 19.71875 L 188.34375 19.71875 L 188.71875 17.59375 L 191.8125 0 L 173.9375 0 L 146.28125 0 L 133.6875 0 z M 146.28125 15 L 173.9375 15 L 168.53125 45.65625 L 140.875 45.65625 L 146.28125 15 z M 50.03125 34.71875 L 124.9375 34.71875 L 92.78125 217.0625 L 17.875 217.0625 L 23.28125 186.375 L 70.53125 186.375 L 73.71875 168.375 L 26.46875 168.375 L 50.03125 34.71875 z M 188.34375 34.71875 L 310.5 34.71875 L 281.84375 197.34375 L 254.1875 197.34375 L 277.4375 65.375 L 257.84375 65.375 L 234.59375 197.34375 L 206.9375 197.34375 L 230.1875 65.375 L 210.59375 65.375 L 187.34375 197.34375 L 159.6875 197.34375 L 188.34375 34.71875 z M 328.375 34.71875 L 403.28125 34.71875 L 374.625 197.34375 L 327.375 197.34375 L 323.875 217.0625 L 296.21875 217.0625 L 328.375 34.71875 z M 138.75 57.75 L 166.40625 57.75 L 141.8125 197.34375 L 114.15625 197.34375 L 138.75 57.75 z M 72.28125 65.375 L 59.53125 137.6875 L 79.125 137.6875 L 91.875 65.375 L 72.28125 65.375 z M 350.625 65.375 L 332.78125 166.65625 L 352.375 166.65625 L 370.21875 65.375 L 350.625 65.375 z "
       id="path3289"
       transform="translate(175.13614,339.18807)" />
  </g>
</svg>
